<?xml version="1.0" encoding="utf-8"?>
<!-- Generator: Adobe Illustrator 25.1.0, SVG Export Plug-In . SVG Version: 6.00 Build 0)  -->
<svg version="1.1" id="Capa_1" xmlns="http://www.w3.org/2000/svg" xmlns:xlink="http://www.w3.org/1999/xlink" x="0px" y="0px"
	 viewBox="0 0 480 480" style="enable-background:new 0 0 480 480;" xml:space="preserve">
<style type="text/css">
	.st0{fill:#1A3B47;}
</style>
<g>
	<path class="st0" d="M240,480C107.45,480,0,372.55,0,240S107.45,0,240,0s240,107.45,240,240C479.85,372.49,372.49,479.85,240,480z
		 M240,16C116.29,16,16,116.29,16,240s100.29,224,224,224s224-100.29,224-224C463.86,116.35,363.65,16.14,240,16z"/>
	<path class="st0" d="M240,320c-2.12,0-4.16-0.84-5.66-2.34L98.58,181.89c-3.07-3.18-2.98-8.24,0.2-11.31
		c3.1-2.99,8.01-2.99,11.11,0L240,300.69l130.11-130.11c3.07-3.18,8.13-3.27,11.31-0.2c3.18,3.07,3.27,8.13,0.2,11.31
		c-0.06,0.07-0.13,0.13-0.2,0.2L245.66,317.66C244.16,319.16,242.12,320,240,320z"/>
</g>
</svg>
