<svg id="Layer_1" data-name="Layer 1" xmlns="http://www.w3.org/2000/svg" viewBox="0 0 300 200"><defs><style>.cls-1{fill:#1a1413;}</style></defs><path class="cls-1" d="M183.4,108.91a10,10,0,0,1,2,6.25,12.09,12.09,0,0,1-1.16,5.47,10.24,10.24,0,0,1-3.19,3.63,13,13,0,0,1-4.68,1.88,28.41,28.41,0,0,1-5.58.53c-4.22,0-7.67-1-10.29-2.81s-4-4.77-4.12-8.61a1.55,1.55,0,0,1,0-.21h3.94c0,.07,0,.13,0,.2a6.79,6.79,0,0,0,.78,3.46,6.51,6.51,0,0,0,2.11,2.23,10,10,0,0,0,3.27,1.28,26.25,26.25,0,0,0,8.06.17,10,10,0,0,0,3.41-1,6.4,6.4,0,0,0,2.41-2.23,7.13,7.13,0,0,0,1-4,6.8,6.8,0,0,0-1.18-3.77A6.42,6.42,0,0,0,176.6,109l-12.41-3.53a9.37,9.37,0,0,1-5.23-3.21,8.6,8.6,0,0,1-1.86-5.56,10.19,10.19,0,0,1,1.14-5,9.32,9.32,0,0,1,3-3.33,12.38,12.38,0,0,1,4.33-1.84,23.56,23.56,0,0,1,5.15-.54c4.19,0,7.63.93,10.2,2.75s4,4.79,4.08,8.6c0,0,0,.08,0,.13h-3.86s0-.07,0-.11c-.09-2.62-1.06-4.53-2.89-5.67a14.16,14.16,0,0,0-7.66-1.83,21.49,21.49,0,0,0-3.41.27,9,9,0,0,0-3.08,1,5.59,5.59,0,0,0-2.21,2,6.3,6.3,0,0,0-.86,3.55,4.82,4.82,0,0,0,1.12,3.06,6.67,6.67,0,0,0,3.35,2.15l12.37,3.43a9.88,9.88,0,0,1,5.55,3.6M131.58,86a13.63,13.63,0,0,0-3.35.45,14.8,14.8,0,0,0-3.35,1.18A11.83,11.83,0,0,0,122,89.54a7.5,7.5,0,0,0-.85.84v0h0v0l-2.06-3.93H117.2v40h3.92V99.47a8.92,8.92,0,0,1,.78-3.89,9.47,9.47,0,0,1,2.15-3,9.27,9.27,0,0,1,3.29-2,12.33,12.33,0,0,1,4.24-.7,12.94,12.94,0,0,1,5.16.9,8.82,8.82,0,0,1,3.11,2.28,8.46,8.46,0,0,1,1.55,3.1,15.52,15.52,0,0,1,.43,3.49V126.4h3.9V99.64c0-4.35-1.25-7.74-3.74-10.08S136,86,131.58,86M280.1,126.73c3.44,0,6.14-.87,8.06-2.57l-1.48-3.55a9.09,9.09,0,0,1-6.58,2.33,6.53,6.53,0,0,1-5.22-2c-1.15-1.35-1.71-3.6-1.71-6.91v-24h12.52l.1,0V86.45l-.1,0H273.17V74.31h-3.9v40c0,4.16.93,7.31,2.76,9.35s4.56,3.12,8.07,3.12M55.87,86h-.19c-4.46,0-8,1.22-10.54,3.63a10.86,10.86,0,0,0-1.92,2.49,11.27,11.27,0,0,0-1.91-2.49c-2.49-2.37-6-3.59-10.39-3.62h-.36c-4.46,0-8,1.22-10.54,3.63s-3.78,5.79-3.78,10.17V126.4h3.93V99.79a13.35,13.35,0,0,1,.44-3.49,8.28,8.28,0,0,1,1.57-3.17,8.41,8.41,0,0,1,3.13-2.31,13.07,13.07,0,0,1,5.11-.93.75.75,0,0,0,.35,0,12.9,12.9,0,0,1,5.24.91,8.08,8.08,0,0,1,3.14,2.32,7.89,7.89,0,0,1,1.58,3.14,15.42,15.42,0,0,1,.43,3.51V126.4H45.3V99.79a15.15,15.15,0,0,1,.42-3.49,8.26,8.26,0,0,1,1.58-3.16,8.52,8.52,0,0,1,3.15-2.31,12.8,12.8,0,0,1,5.15-.91,1,1,0,0,0,.32,0,13,13,0,0,1,5.23.91,8.84,8.84,0,0,1,3.14,2.3,8.6,8.6,0,0,1,1.57,3.16,15,15,0,0,1,.44,3.5v26.61h3.93V99.79c0-4.38-1.28-7.8-3.78-10.17S60.37,86,55.87,86m203.69,40.28a1.74,1.74,0,0,0,.34,0v-3.48c-.12,0-.21,0-.34,0h-8V86.43H236.89V90h10.7v32.68h-10.7v3.57h22.67ZM97.22,86.47H82.62a1.93,1.93,0,0,0-.49.08V90a2.51,2.51,0,0,0,.49.08H93.24V122.7H82.13v3.58c.16,0,23,0,23,0V122.7H97.22ZM223.58,94a14.65,14.65,0,0,1,1,5.61v26.69h-2.49l-1.25-3.1,0,.07v-.18l-.09.09c-2.54,2.36-6.06,3.56-10.5,3.58s-8-1.22-10.47-3.58-3.86-5.79-3.86-10.11V99.59a14.51,14.51,0,0,1,1-5.6,12.29,12.29,0,0,1,2.91-4.33,12.82,12.82,0,0,1,4.53-2.74,18.59,18.59,0,0,1,11.77,0,13,13,0,0,1,4.53,2.75,12.45,12.45,0,0,1,2.9,4.31m-3.05,5.61a9.54,9.54,0,0,0-2.67-7.22c-1.76-1.67-4.33-2.52-7.62-2.54s-5.84.87-7.59,2.54S200,96.48,200,99.59v13.46a14.63,14.63,0,0,0,.45,3.47,7.8,7.8,0,0,0,1.52,3.1,8.4,8.4,0,0,0,3.09,2.27,15.7,15.7,0,0,0,10.45,0,8.26,8.26,0,0,0,3.09-2.28,7.84,7.84,0,0,0,1.52-3.09,15.13,15.13,0,0,0,.44-3.47V99.59Z"/></svg>