<svg id="Layer_1" data-name="Layer 1" xmlns="http://www.w3.org/2000/svg" viewBox="0 0 300 200"><defs><style>.cls-1{fill:#1a1413;}</style></defs><path class="cls-1" d="M24.63,118.44l-2.72-8.53H12.52l-2.77,8.53H6.45L15,92.36h4.48l8.58,26.08ZM18.46,99.35c-.23-.71-.43-1.4-.6-2.09s-.33-1.42-.47-2.2h-.34c-.16.78-.32,1.51-.48,2.2s-.36,1.38-.58,2.09L13.49,107h7.44Z"/><path class="cls-1" d="M44.18,118.44V106.12a15.41,15.41,0,0,0-.13-2.22,3.68,3.68,0,0,0-.49-1.47,2,2,0,0,0-1-.81,4.49,4.49,0,0,0-1.64-.25,10.14,10.14,0,0,0-2.65.43,26.78,26.78,0,0,0-3.44,1.29v15.37H31.7V99.15h3.13v1.51a27.49,27.49,0,0,1,3.27-1.44,9.35,9.35,0,0,1,3.2-.57,8,8,0,0,1,3.12.51,4.06,4.06,0,0,1,1.84,1.47,5.68,5.68,0,0,1,.88,2.35,20,20,0,0,1,.22,3.15v12.32H44.18Z"/><path class="cls-1" d="M81.2,118.44V106.12a15.41,15.41,0,0,0-.13-2.22,3.68,3.68,0,0,0-.49-1.47,2,2,0,0,0-1-.81,4.49,4.49,0,0,0-1.64-.25,10.14,10.14,0,0,0-2.65.43,26.78,26.78,0,0,0-3.44,1.29v15.37H68.72V99.15h3.13v1.51a27.49,27.49,0,0,1,3.27-1.44,9.35,9.35,0,0,1,3.2-.57,8.07,8.07,0,0,1,3.12.51,4.06,4.06,0,0,1,1.84,1.47,5.68,5.68,0,0,1,.88,2.35,20,20,0,0,1,.22,3.15v12.32H81.2Z"/><path class="cls-1" d="M101.63,118.44v-1a11.74,11.74,0,0,1-2.35,1,9.85,9.85,0,0,1-3.09.45,9,9,0,0,1-3-.49,5.63,5.63,0,0,1-2.27-1.51,7,7,0,0,1-1.41-2.57,12.49,12.49,0,0,1-.49-3.69v-3.32a12.58,12.58,0,0,1,.61-4.27,6.49,6.49,0,0,1,1.69-2.67,5.82,5.82,0,0,1,2.54-1.37A12.29,12.29,0,0,1,97,98.66a18.6,18.6,0,0,1,2.27.13c.73.09,1.49.21,2.27.37V91.29h3.17v27.16h-3.06Zm-.11-16.67-1.21-.19c-.4-.06-.79-.1-1.17-.14l-1.07-.09-.9,0a9.73,9.73,0,0,0-2.11.21,3.26,3.26,0,0,0-1.59.86,4.14,4.14,0,0,0-1,1.84,11.52,11.52,0,0,0-.34,3.12v3.32a6.56,6.56,0,0,0,1.11,4.22,4.35,4.35,0,0,0,3.54,1.34,9.11,9.11,0,0,0,2.48-.33,13.6,13.6,0,0,0,2.25-.87V101.77Z"/><path class="cls-1" d="M110.14,118.44V99.15h3.1v1.54a8.77,8.77,0,0,1,3.13-1.56,14.23,14.23,0,0,1,3.78-.48v2.81a14.22,14.22,0,0,0-1.93.13c-.65.09-1.29.2-1.89.34a17.34,17.34,0,0,0-1.71.51,6.69,6.69,0,0,0-1.34.66v15.34Z"/><path class="cls-1" d="M133.35,118.44v-1.3a10.62,10.62,0,0,1-1.06.63,9.55,9.55,0,0,1-1.39.57,14.22,14.22,0,0,1-1.71.43,11.7,11.7,0,0,1-2,.17,8.69,8.69,0,0,1-2.44-.32,4.58,4.58,0,0,1-1.82-1,4.36,4.36,0,0,1-1.14-1.71,7,7,0,0,1-.4-2.47v-.7a6.5,6.5,0,0,1,.63-3.08,4.36,4.36,0,0,1,1.8-1.81,7.86,7.86,0,0,1,2.82-.86,29.47,29.47,0,0,1,3.7-.21h2.88v-1.4a10.39,10.39,0,0,0-.16-2,2.25,2.25,0,0,0-.65-1.23,2.85,2.85,0,0,0-1.38-.62,13.33,13.33,0,0,0-2.35-.17c-.54,0-1.06,0-1.55,0s-1,0-1.46.09l-1.45.13-1.52.17V99.5c.14,0,.4-.12.79-.21s.86-.19,1.42-.28,1.18-.17,1.88-.24a21.58,21.58,0,0,1,2.16-.1,14,14,0,0,1,3.88.44,5,5,0,0,1,2.26,1.28,4.26,4.26,0,0,1,1.05,2.11,14.76,14.76,0,0,1,.26,2.91v13.06h-3Zm-.15-9.27h-2.88a22.05,22.05,0,0,0-2.63.13,5.08,5.08,0,0,0-1.79.5,2.21,2.21,0,0,0-1,1.09,4.64,4.64,0,0,0-.32,1.86v1a3.28,3.28,0,0,0,.24,1.34,2.27,2.27,0,0,0,.67.85,2.76,2.76,0,0,0,1,.45,5.91,5.91,0,0,0,1.3.13,8.82,8.82,0,0,0,1.7-.16,12.66,12.66,0,0,0,1.56-.4,10.66,10.66,0,0,0,1.28-.51,5.72,5.72,0,0,0,.86-.47Z"/><path class="cls-1" d="M160.83,118.27c-.17.06-.42.12-.76.2s-.74.15-1.21.22-1,.13-1.62.18-1.26.08-2,.08a9.42,9.42,0,0,1-3.44-.58,6,6,0,0,1-2.42-1.7,7.21,7.21,0,0,1-1.42-2.74,13.31,13.31,0,0,1-.47-3.68v-2.91a13,13,0,0,1,.47-3.69,7.09,7.09,0,0,1,1.42-2.73,6.07,6.07,0,0,1,2.42-1.68,9.46,9.46,0,0,1,3.44-.57c.7,0,1.36,0,2,.08s1.15.11,1.62.18.87.14,1.21.22l.76.19v2.38c-1.18-.13-2.2-.22-3-.26s-1.52-.08-2-.08a7.94,7.94,0,0,0-2.1.26,3.46,3.46,0,0,0-1.59.93,4.46,4.46,0,0,0-1,1.83,10.09,10.09,0,0,0-.36,2.95v2.91a10.17,10.17,0,0,0,.36,3,4.23,4.23,0,0,0,1,1.83,3.57,3.57,0,0,0,1.59.94,7.55,7.55,0,0,0,2.1.26c.52,0,1.2,0,2-.09s1.86-.15,3-.27Z"/><path class="cls-1" d="M180.9,110.2a12.14,12.14,0,0,1-.52,3.73,7,7,0,0,1-1.57,2.74,6.61,6.61,0,0,1-2.59,1.68,11.62,11.62,0,0,1-7.19,0,6.57,6.57,0,0,1-2.58-1.68,7.3,7.3,0,0,1-1.56-2.74,12.12,12.12,0,0,1-.53-3.73v-2.81c0-2.81.69-5,2.09-6.48s3.44-2.26,6.17-2.26,4.8.76,6.19,2.26,2.09,3.67,2.09,6.48v2.81Zm-3.17-2.81a10.56,10.56,0,0,0-.3-2.69,4.64,4.64,0,0,0-.92-1.86,3.62,3.62,0,0,0-1.59-1.07,6.85,6.85,0,0,0-2.31-.35,4.81,4.81,0,0,0-3.85,1.42,6.86,6.86,0,0,0-1.23,4.55v2.81a10.56,10.56,0,0,0,.3,2.69,4.77,4.77,0,0,0,.92,1.86,3.59,3.59,0,0,0,1.58,1.07,6.76,6.76,0,0,0,2.28.34,4.85,4.85,0,0,0,3.89-1.43,6.91,6.91,0,0,0,1.22-4.54v-2.8Z"/><path class="cls-1" d="M207.22,118.44V105.62c0-.68,0-1.28,0-1.8a3.3,3.3,0,0,0-.32-1.34,1.89,1.89,0,0,0-.86-.84,3.93,3.93,0,0,0-1.68-.29,7.71,7.71,0,0,0-2.32.43,13.5,13.5,0,0,0-2.58,1.18,10.56,10.56,0,0,1,.12,1.36c0,.44,0,.88,0,1.3v12.82h-3.17V105.62c0-.68,0-1.28,0-1.8a3.91,3.91,0,0,0-.29-1.34,1.72,1.72,0,0,0-.78-.84,3.33,3.33,0,0,0-1.53-.29,5.9,5.9,0,0,0-1.3.15,11.13,11.13,0,0,0-1.33.39,12.11,12.11,0,0,0-1.27.54c-.41.2-.79.4-1.15.61v15.4h-3.14V99.15h3.14v1.51a11.5,11.5,0,0,1,2.66-1.44,8.57,8.57,0,0,1,3.13-.57,5.54,5.54,0,0,1,2.71.57,4.08,4.08,0,0,1,1.57,1.51A13.85,13.85,0,0,1,202,99.14a9.08,9.08,0,0,1,2.82-.48,7.81,7.81,0,0,1,2.38.31,4.79,4.79,0,0,1,1.59.84,4,4,0,0,1,1,1.22,5.73,5.73,0,0,1,.5,1.46,10.31,10.31,0,0,1,.18,1.59c0,.54,0,1.06,0,1.55v12.82h-3.19Z"/><path class="cls-1" d="M215.76,125.81V99.15h3v1.28a9.72,9.72,0,0,1,2.77-1.34,9.82,9.82,0,0,1,2.89-.45,8.33,8.33,0,0,1,3,.49,5.22,5.22,0,0,1,2.2,1.57,7.46,7.46,0,0,1,1.37,2.78,15.52,15.52,0,0,1,.47,4.14v1.9a14.28,14.28,0,0,1-.63,4.61A7.38,7.38,0,0,1,229.1,117a6,6,0,0,1-2.61,1.49,12.1,12.1,0,0,1-3.25.42c-.33,0-.69,0-1.07,0l-1.15-.12c-.38,0-.76-.11-1.13-.18s-.7-.15-1-.22v7.44Zm12.56-18.18a13,13,0,0,0-.28-3,4.82,4.82,0,0,0-.83-1.91,3.08,3.08,0,0,0-1.37-1,5.31,5.31,0,0,0-1.91-.31,7.82,7.82,0,0,0-1.1.07,8.72,8.72,0,0,0-1.13.23,10.86,10.86,0,0,0-1.28.44c-.45.18-1,.41-1.54.7v12.87c.79.16,1.55.29,2.27.39a15.06,15.06,0,0,0,2.07.15,7.65,7.65,0,0,0,2.1-.26,3.2,3.2,0,0,0,1.6-1,4.92,4.92,0,0,0,1-2,13.47,13.47,0,0,0,.36-3.44v-1.9Z"/><path class="cls-1" d="M247.13,118.44v-1.3a10.62,10.62,0,0,1-1.06.63,9.55,9.55,0,0,1-1.39.57,14.22,14.22,0,0,1-1.71.43,11.7,11.7,0,0,1-2,.17,8.69,8.69,0,0,1-2.44-.32,4.58,4.58,0,0,1-1.82-1,4.36,4.36,0,0,1-1.14-1.71,7,7,0,0,1-.4-2.47v-.7a6.5,6.5,0,0,1,.63-3.08,4.36,4.36,0,0,1,1.8-1.81,7.86,7.86,0,0,1,2.82-.86,29.47,29.47,0,0,1,3.7-.21H247v-1.4a10.39,10.39,0,0,0-.16-2,2.25,2.25,0,0,0-.65-1.23,2.85,2.85,0,0,0-1.38-.62,13.33,13.33,0,0,0-2.35-.17c-.54,0-1.06,0-1.55,0s-1,0-1.46.09l-1.45.13-1.52.17V99.5c.14,0,.4-.12.79-.21s.86-.19,1.42-.28,1.18-.17,1.88-.24a21.58,21.58,0,0,1,2.16-.1,14,14,0,0,1,3.88.44,5,5,0,0,1,2.26,1.28,4.26,4.26,0,0,1,1,2.11,14.76,14.76,0,0,1,.26,2.91v13.06h-3Zm-.15-9.27H244.1a22.05,22.05,0,0,0-2.63.13,5.21,5.21,0,0,0-1.8.5,2.21,2.21,0,0,0-1,1.09,4.64,4.64,0,0,0-.32,1.86v1a3.28,3.28,0,0,0,.24,1.34,2.27,2.27,0,0,0,.67.85,2.76,2.76,0,0,0,1,.45,5.91,5.91,0,0,0,1.3.13,8.75,8.75,0,0,0,1.7-.16,12.66,12.66,0,0,0,1.56-.4,10.66,10.66,0,0,0,1.28-.51,5.72,5.72,0,0,0,.86-.47v-5.77Z"/><path class="cls-1" d="M267.84,118.44V106.12a15.41,15.41,0,0,0-.13-2.22,3.68,3.68,0,0,0-.49-1.47,2,2,0,0,0-1-.81,4.43,4.43,0,0,0-1.63-.25,10.27,10.27,0,0,0-2.66.43,26.78,26.78,0,0,0-3.44,1.29v15.37h-3.14V99.15h3.14v1.51a27.49,27.49,0,0,1,3.27-1.44,9.3,9.3,0,0,1,3.19-.57,8.07,8.07,0,0,1,3.12.51,4.11,4.11,0,0,1,1.84,1.47,5.68,5.68,0,0,1,.88,2.35,19.87,19.87,0,0,1,.23,3.15v12.32h-3.18Z"/><path class="cls-1" d="M282.17,118.44l-7.53-19.29h3.5L282.08,110l.42,1.24q.19.59.39,1.2t.39,1.26c.13.43.28.9.44,1.42.11-.51.23-1,.34-1.42s.23-.85.35-1.25.25-.8.37-1.21l.42-1.28,3.57-10.79h3.38l-7.37,21c-.33.93-.67,1.76-1,2.52a7.45,7.45,0,0,1-1.24,1.93,5,5,0,0,1-1.75,1.23,6.43,6.43,0,0,1-2.52.44,17.33,17.33,0,0,1-2.26-.13c-.68-.09-1.18-.16-1.52-.23v-2.41l1,.06.89,0,.85,0h.9a3.2,3.2,0,0,0,1.2-.2,2.28,2.28,0,0,0,.86-.64,4.89,4.89,0,0,0,.71-1.17c.21-.48.46-1.07.72-1.78Z"/><rect class="cls-1" x="59.73" y="92.36" width="3.24" height="26.08"/></svg>