<?xml version="1.0" encoding="utf-8"?>
<!-- Generator: Adobe Illustrator 25.1.0, SVG Export Plug-In . SVG Version: 6.00 Build 0)  -->
<svg version="1.1" id="Layer_1" xmlns="http://www.w3.org/2000/svg" xmlns:xlink="http://www.w3.org/1999/xlink" x="0px" y="0px"
	 viewBox="0 0 55 64" style="enable-background:new 0 0 55 64;" xml:space="preserve">
<style type="text/css">
	.st0{fill:#79C5B4;}
	.st1{fill:#1A3B47;}
	.st2{fill:#1A3B47;stroke:#1A3B47;stroke-linecap:round;stroke-linejoin:round;stroke-miterlimit:10;}
</style>
<g>
	<polygon class="st0" points="51.1,51.2 3.9,51.1 8.2,35.3 13.7,35.3 13.7,36.6 9.2,36.6 5.6,49.8 49.3,49.9 45.2,36.6 41.5,36.6 
		41.5,35.3 46.1,35.3 	"/>
	<g>
		<g>
			<g>
				<path class="st1" d="M21.8,14.3c-1.3,0-2.4,1.1-2.4,2.4c0,1.3,1.1,2.4,2.4,2.4c1.3,0,2.4-1.1,2.4-2.4
					C24.2,15.4,23.1,14.3,21.8,14.3 M21.8,20.7c-2.2,0-4-1.8-4-4s1.8-4,4-4s4,1.8,4,4C25.7,18.9,24,20.7,21.8,20.7"/>
				<path class="st1" d="M27.5,26.5c-0.4,0-0.8-0.3-0.8-0.8V26c0-1.3-2-2.7-5-2.7c-3,0-5,1.4-5,2.7v17.6c0,0.4-0.3,0.8-0.8,0.8
					c-0.4,0-0.8-0.3-0.8-0.8V26c0-2.4,2.9-4.2,6.5-4.2s6.5,1.9,6.5,4.2v-0.3C28.3,26.2,27.9,26.5,27.5,26.5"/>
			</g>
		</g>
		<g>
			<g>
				<path class="st1" d="M33.2,14.3c-1.3,0-2.4,1.1-2.4,2.4c0,1.3,1.1,2.4,2.4,2.4s2.4-1.1,2.4-2.4C35.7,15.4,34.6,14.3,33.2,14.3
					 M33.2,20.7c-2.2,0-4-1.8-4-4s1.8-4,4-4s4,1.8,4,4C37.2,18.9,35.4,20.7,33.2,20.7"/>
				<path class="st1" d="M27.5,26.5c0.4,0,0.8-0.3,0.8-0.8V26c0-1.3,2-2.7,5-2.7c3,0,5,1.4,5,2.7v17.6c0,0.4,0.3,0.8,0.8,0.8
					s0.8-0.3,0.8-0.8V26c0-2.4-2.9-4.2-6.5-4.2s-6.5,1.9-6.5,4.2v-0.3C26.7,26.2,27.1,26.5,27.5,26.5"/>
			</g>
		</g>
	</g>
	<g>
		<g>
			<g>
				<path class="st2" d="M28.2,37.4c0,0.2,0,0.4,0,0.6c0,0.5,0,1,0,1.5c0,0.6,0,1.2,0,1.8c0,0.5,0,1,0,1.6c0,0.2,0,0.5,0,0.8
					c0,0,0,0,0,0c0,0,0-0.1,0-0.1c0,0,0,0,0,0.1c0,0,0-0.1,0-0.1c0,0,0,0,0,0c0.1-0.1,0.1-0.1,0,0c0,0,0,0,0,0c0,0,0,0,0,0
					c0,0,0.1,0,0.1,0c0,0,0,0-0.1,0c0,0,0.1,0,0.1,0c-0.3,0-0.5,0-0.8,0c-0.4,0-0.8,0-1.2,0c-0.1,0-0.2,0-0.3,0c0,0,0.1,0,0.1,0
					c0,0,0,0-0.1,0c0,0,0.1,0,0.1,0c0,0,0,0,0,0c0.1,0.1,0.1,0.1,0,0c0,0,0,0,0,0c0,0,0,0,0,0c0,0,0,0.1,0,0.1c0,0,0,0,0-0.1
					c0,0,0,0.1,0,0.1c0-0.2,0-0.4,0-0.6c0-0.5,0-1,0-1.5c0-0.6,0-1.2,0-1.8c0-0.5,0-1,0-1.6c0-0.2,0-0.5,0-0.8c0,0,0,0,0,0
					c0,0,0,0.1,0,0.1c0,0,0,0,0-0.1c0,0,0,0.1,0,0.1c0,0,0,0,0,0c-0.1,0.1-0.1,0.1,0,0c0,0,0,0,0,0c0,0,0,0,0,0c0,0-0.1,0-0.1,0
					c0,0,0,0,0.1,0c0,0-0.1,0-0.1,0c0.3,0,0.5,0,0.8,0c0.4,0,0.8,0,1.2,0c0.1,0,0.2,0,0.3,0c0,0-0.1,0-0.1,0c0,0,0,0,0.1,0
					c0,0-0.1,0-0.1,0c0,0,0,0,0,0c-0.1-0.1-0.1-0.1,0,0c0,0,0,0,0,0c0,0,0,0,0,0C28.3,37.5,28.2,37.5,28.2,37.4
					C28.2,37.5,28.2,37.5,28.2,37.4C28.2,37.5,28.2,37.4,28.2,37.4C28.2,37.4,28.2,37.4,28.2,37.4c0,0.2,0.2,0.5,0.5,0.5
					c0.2,0,0.5-0.2,0.5-0.5c0-0.3-0.2-0.6-0.5-0.7c-0.1,0-0.1,0-0.2,0c-0.1,0-0.3,0-0.4,0c-0.4,0-0.8,0-1.2,0c-0.2,0-0.3,0-0.5,0
					c-0.2,0-0.5,0-0.6,0.2c-0.1,0.1-0.2,0.3-0.2,0.5c0,0.1,0,0.1,0,0.2c0,0.7,0,1.3,0,2c0,0.9,0,1.7,0,2.6c0,0.5,0,1,0,1.4
					c0,0.3,0.2,0.6,0.6,0.7c0.1,0,0.2,0,0.3,0c0.4,0,0.8,0,1.2,0c0.3,0,0.6,0,0.9,0c0.4,0,0.7-0.3,0.7-0.7c0,0,0-0.1,0-0.1
					c0-0.6,0-1.2,0-1.8c0-0.9,0-1.7,0-2.6c0-0.6,0-1.1,0-1.7c0,0,0-0.1,0-0.1c0-0.2-0.2-0.5-0.5-0.5C28.4,37,28.2,37.2,28.2,37.4z"
					/>
			</g>
		</g>
		<g>
			<g>
				<path class="st2" d="M33.5,34c0,0.3,0,0.6,0,1c0,0.8,0,1.5,0,2.3c0,0.9,0,1.9,0,2.8c0,0.8,0,1.6,0,2.4c0,0.4,0,0.8,0,1.2
					c0,0,0,0,0,0c0,0,0-0.1,0-0.1c0,0,0,0,0,0.1c0,0,0-0.1,0-0.1c0,0,0,0,0,0c0.1-0.1,0.1-0.1,0,0c0,0,0,0,0,0c0,0,0,0,0,0
					c0,0,0.1,0,0.1,0c0,0,0,0-0.1,0c0,0,0.1,0,0.1,0c-0.3,0-0.5,0-0.8,0c-0.4,0-0.8,0-1.2,0c-0.1,0-0.2,0-0.3,0c0,0,0.1,0,0.1,0
					c0,0,0,0-0.1,0c0,0,0.1,0,0.1,0c0,0,0,0,0,0c0.1,0.1,0.1,0.1,0,0c0,0,0,0,0,0c0,0,0,0,0,0c0,0,0,0.1,0,0.1c0,0,0,0,0-0.1
					c0,0,0,0.1,0,0.1c0-0.3,0-0.7,0-1c0-0.8,0-1.5,0-2.3c0-0.9,0-1.9,0-2.8c0-0.8,0-1.6,0-2.4c0-0.4,0-0.8,0-1.2c0,0,0,0,0,0
					c0,0,0,0.1,0,0.1c0,0,0,0,0-0.1c0,0,0,0.1,0,0.1c0,0,0,0,0,0c-0.1,0.1-0.1,0.1,0,0c0,0,0,0,0,0c0,0,0,0,0,0c0,0-0.1,0-0.1,0
					c0,0,0,0,0.1,0c0,0-0.1,0-0.1,0c0.3,0,0.5,0,0.8,0c0.4,0,0.8,0,1.2,0c0.1,0,0.2,0,0.3,0c0,0-0.1,0-0.1,0c0,0,0,0,0.1,0
					c0,0-0.1,0-0.1,0c0,0,0,0,0,0c-0.1-0.1-0.1-0.1,0,0c0,0,0,0,0,0c0,0,0,0,0,0C33.5,34.1,33.5,34.1,33.5,34c0,0.1,0,0.1,0,0.1
					C33.5,34.1,33.5,34,33.5,34C33.5,34,33.5,34,33.5,34c0,0.2,0.2,0.5,0.5,0.5c0.2,0,0.5-0.2,0.5-0.5c0-0.4-0.3-0.7-0.7-0.7
					c0,0-0.1,0-0.1,0c-0.2,0-0.5,0-0.7,0c-0.4,0-0.9,0-1.4,0c-0.4,0-0.7,0.3-0.7,0.7c0,0.1,0,0.1,0,0.2c0,0.3,0,0.6,0,0.9
					c0,0.5,0,1,0,1.5c0,0.6,0,1.2,0,1.7c0,0.6,0,1.2,0,1.8c0,0.5,0,1.1,0,1.6c0,0.4,0,0.8,0,1.2c0,0.2,0,0.4,0,0.6
					c0,0.4,0.3,0.7,0.7,0.7c0.2,0,0.3,0,0.5,0c0.5,0,1.1,0,1.6,0c0,0,0.1,0,0.1,0c0.4,0,0.7-0.3,0.7-0.7c0,0,0-0.1,0-0.1
					c0-0.3,0-0.5,0-0.8c0-0.4,0-0.9,0-1.4c0-0.6,0-1.1,0-1.7c0-0.6,0-1.2,0-1.8c0-0.6,0-1.1,0-1.7c0-0.4,0-0.9,0-1.3
					c0-0.3,0-0.5,0-0.8c0,0,0-0.1,0-0.1c0-0.2-0.2-0.5-0.5-0.5C33.7,33.6,33.5,33.7,33.5,34z"/>
			</g>
		</g>
		<g>
			<g>
				<path class="st2" d="M22.9,39.8c0,0.4,0,0.9,0,1.3c0,0.7,0,1.4,0,2.1c0,0.2,0,0.3,0,0.5c0,0,0-0.1,0-0.1c0,0,0,0,0,0.1
					c0,0,0-0.1,0-0.1c0,0,0,0,0,0c0.1-0.1,0.1-0.1,0,0c0,0,0,0,0,0c0,0,0,0,0,0c0,0,0.1,0,0.1,0c0,0,0,0-0.1,0c0,0,0.1,0,0.1,0
					c-0.3,0-0.5,0-0.8,0c-0.4,0-0.8,0-1.2,0c-0.1,0-0.2,0-0.3,0c0,0,0.1,0,0.1,0c0,0,0,0-0.1,0c0,0,0.1,0,0.1,0c0,0,0,0,0,0
					c0.1,0.1,0.1,0.1,0,0c0,0,0,0,0,0c0,0,0,0,0,0c0,0,0,0.1,0,0.1c0,0,0,0,0-0.1c0,0,0,0.1,0,0.1c0-0.1,0-0.3,0-0.4
					c0-0.3,0-0.6,0-0.9c0-0.7,0-1.4,0-2.1c0-0.2,0-0.3,0-0.5c0,0,0,0.1,0,0.1c0,0,0,0,0-0.1c0,0,0,0.1,0,0.1c0,0,0,0,0,0
					c-0.1,0.1-0.1,0.1,0,0c0,0,0,0,0,0c0,0,0,0,0,0c0,0-0.1,0-0.1,0c0,0,0,0,0.1,0c0,0-0.1,0-0.1,0c0.3,0,0.5,0,0.8,0
					c0.4,0,0.8,0,1.2,0c0.1,0,0.2,0,0.3,0c0,0-0.1,0-0.1,0c0,0,0,0,0.1,0c0,0-0.1,0-0.1,0c0,0,0,0,0,0c-0.1-0.1-0.1-0.1,0,0
					c0,0,0,0,0,0c0,0,0,0,0,0C23,39.9,23,39.8,22.9,39.8c0,0.1,0,0.1,0,0.1C23,39.8,23,39.8,22.9,39.8
					C22.9,39.7,22.9,39.7,22.9,39.8c0,0.2,0.2,0.5,0.5,0.5c0.2,0,0.5-0.2,0.5-0.5c0-0.4-0.3-0.7-0.7-0.7c-0.1,0-0.1,0-0.2,0
					c-0.3,0-0.5,0-0.8,0c-0.3,0-0.6,0-0.9,0c-0.1,0-0.2,0-0.3,0c-0.2,0-0.4,0.1-0.5,0.2c-0.2,0.2-0.2,0.4-0.2,0.7c0,0.2,0,0.4,0,0.6
					c0,0.6,0,1.2,0,1.9c0,0.4,0,0.8,0,1.2c0,0.2,0.1,0.5,0.3,0.6c0.1,0.1,0.3,0.1,0.4,0.1c0.2,0,0.5,0,0.7,0c0.5,0,1,0,1.5,0
					c0.4,0,0.7-0.3,0.7-0.7c0,0,0-0.1,0-0.1c0-0.2,0-0.4,0-0.6c0-0.6,0-1.2,0-1.8c0-0.5,0-0.9,0-1.4c0,0,0,0,0-0.1
					c0-0.2-0.2-0.5-0.5-0.5C23.2,39.3,22.9,39.5,22.9,39.8z"/>
			</g>
		</g>
		<g>
			<g>
				<path class="st2" d="M21,38c0.4-0.4,0.9-0.8,1.3-1.2c0.7-0.6,1.4-1.3,2.1-1.9c0.2-0.1,0.3-0.3,0.5-0.4c-0.2,0-0.4,0-0.6,0.1
					c0.3,0.1,0.6,0.2,0.8,0.4c0.4,0.2,0.9,0.4,1.3,0.6c0.1,0,0.2,0.1,0.3,0.1c0.1,0,0.2,0.1,0.3,0.1c0.1,0,0.2-0.1,0.3-0.1
					c0.2-0.2,0.4-0.4,0.5-0.5c0.4-0.4,0.9-0.9,1.3-1.3c0.5-0.5,1-1,1.6-1.5c0.4-0.4,0.9-0.9,1.4-1.3c0.2-0.2,0.4-0.4,0.7-0.7
					c0,0,0,0,0,0c0.2-0.2,0.2-0.5,0-0.7c-0.2-0.2-0.5-0.2-0.7,0c-0.2,0.2-0.4,0.4-0.5,0.5c-0.4,0.4-0.9,0.9-1.3,1.3
					c-0.5,0.5-1,1-1.6,1.5c-0.4,0.4-0.9,0.9-1.4,1.3c-0.2,0.2-0.4,0.4-0.7,0.7c0,0,0,0,0,0c0.2,0,0.4,0,0.6-0.1
					c-0.3-0.1-0.6-0.2-0.8-0.4c-0.4-0.2-0.9-0.4-1.3-0.6c-0.1,0-0.2-0.1-0.3-0.1c-0.1,0-0.2-0.1-0.3-0.1c-0.1,0-0.2,0.1-0.3,0.1
					c-0.4,0.4-0.9,0.8-1.3,1.2c-0.7,0.6-1.4,1.3-2.1,1.9c-0.2,0.1-0.3,0.3-0.5,0.4c-0.2,0.2-0.2,0.5,0,0.7
					C20.6,38.2,20.9,38.2,21,38L21,38z"/>
			</g>
		</g>
		<g>
			<g>
				<path class="st2" d="M30.4,30.4c0.6,0,1.2,0,1.8,0c0.1,0,0.2,0,0.3,0c-0.2-0.2-0.3-0.3-0.5-0.5c0,0.6,0,1.2,0,1.8
					c0,0.1,0,0.2,0,0.3c0,0.2,0.2,0.5,0.5,0.5c0.3,0,0.5-0.2,0.5-0.5c0-0.6,0-1.2,0-1.8c0-0.1,0-0.2,0-0.3c0-0.3-0.2-0.5-0.5-0.5
					c-0.6,0-1.2,0-1.8,0c-0.1,0-0.2,0-0.3,0c-0.2,0-0.5,0.2-0.5,0.5C29.9,30.2,30.1,30.4,30.4,30.4L30.4,30.4z"/>
			</g>
		</g>
	</g>
</g>
</svg>
