<?xml version="1.0" encoding="utf-8"?>
<!-- Generator: Adobe Illustrator 25.1.0, SVG Export Plug-In . SVG Version: 6.00 Build 0)  -->
<svg version="1.1" id="Layer_1" xmlns="http://www.w3.org/2000/svg" xmlns:xlink="http://www.w3.org/1999/xlink" x="0px" y="0px"
	 viewBox="0 0 55 64" style="enable-background:new 0 0 55 64;" xml:space="preserve">
<style type="text/css">
	.st0{fill:#E88AA2;}
	.st1{fill:#1A3B47;stroke:#1A3B47;stroke-width:1.1453;stroke-miterlimit:10;}
	.st2{fill:#1A3B47;}
</style>
<g>
	<polygon class="st0" points="8.2,63.6 8.3,0.4 37.4,8.8 37.4,13.7 35.7,13.7 35.7,10.1 10,2.7 9.9,61.3 35.6,54 35.7,51.3 
		37.4,51.3 37.3,55.3 	"/>
	<g>
		<g>
			<path class="st1" d="M45.1,40.5c-0.5-0.5-1.4-0.5-1.9,0l-0.2,0.2l-1.8-1.8c-0.4-0.4-1-0.7-1.6-0.7H28.8l-0.7-0.7
				c-0.5-0.5-1.1-0.7-1.7-0.7c-0.7,0-1.3,0.4-1.8,0.9c-0.2,0.2-0.3,0.6-0.3,0.9c0,0,0,0,0,0c0,0.7,0,1.6,0.6,2.2l4.9,4.8
				c0.4,0.4,1,0.7,1.6,0.7h6.1l-0.5,0.5c-0.3,0.3-0.5,0.8-0.4,1.2c0.1,0.3,0.2,0.5,0.4,0.7l1.2,1.2c0.3,0.3,0.6,0.4,1,0.4
				s0.7-0.1,1-0.4l6.4-6.3c0.3-0.3,0.5-0.8,0.4-1.2c-0.1-0.3-0.2-0.5-0.4-0.7L45.1,40.5z M42.4,41.3l-4.1,4.1h-7
				c-0.3,0-0.7-0.2-1-0.4l-4.9-4.8c-0.4-0.4-0.3-0.9-0.3-1.5c0-0.1,0-0.1,0-0.2c0.4-0.5,0.9-0.7,1.3-0.8c0.4,0,0.7,0.1,1.1,0.4
				l3.6,3.5c0.1,0.1,0.2,0.1,0.3,0.1h4.5c0.2,0,0.5-0.2,0.5-0.5c0-0.2-0.2-0.5-0.5-0.5h-4.3l-1.9-1.8h9.9c0.4,0,0.7,0.1,0.9,0.4
				L42.4,41.3z M44.5,41.2l1.3,1.3c0.1,0.1,0.1,0.2,0.1,0.3c0,0.1,0,0.2-0.1,0.3l-6.4,6.3c-0.2,0.2-0.5,0.2-0.6,0l-1.3-1.3
				c-0.1-0.1-0.1-0.2-0.1-0.3s0-0.2,0.1-0.3l6.4-6.3C44,41,44.3,41,44.5,41.2z"/>
		</g>
		<g>
			<g>
				<path class="st2" d="M28.7,12.9c-1.6,0-2.8,1.3-2.8,2.8s1.3,2.8,2.8,2.8c1.6,0,2.8-1.3,2.8-2.8S30.2,12.9,28.7,12.9 M28.7,20.3
					c-2.5,0-4.6-2.1-4.6-4.6s2.1-4.6,4.6-4.6s4.6,2.1,4.6,4.6S31.2,20.3,28.7,20.3"/>
				<path class="st2" d="M22.1,49c-0.5,0-0.9-0.4-0.9-0.9V26.5c0-2.7,3.3-4.9,7.6-4.9c1.1,0,2.2,0.2,3.3,0.5
					c0.5,0.1,0.7,0.6,0.6,1.1c-0.1,0.5-0.6,0.7-1.1,0.6c-0.8-0.3-1.8-0.4-2.7-0.4c-3.5,0-5.8,1.6-5.8,3.1v21.6
					C22.9,48.6,22.5,49,22.1,49"/>
			</g>
		</g>
		<g>
			<path class="st1" d="M37.9,28.3c0-0.3,0-0.6,0-0.8c0-0.2-0.2-0.4-0.4-0.4c-1.6,0-2.9-0.5-3.9-1.5c-0.1-0.1-0.4-0.1-0.5,0
				c-1,1-2.3,1.5-3.9,1.5c-0.2,0-0.4,0.2-0.4,0.4c0,0.3,0,0.5,0,0.8c-0.1,2.8-0.1,6.5,4.5,8.1c0,0,0.1,0,0.1,0s0.1,0,0.1,0
				C38,34.8,37.9,31.1,37.9,28.3z M33.3,35.7c-3.9-1.4-3.9-4.6-3.8-7.3c0-0.2,0-0.3,0-0.5c1.5-0.1,2.8-0.5,3.8-1.5
				c1.1,0.9,2.3,1.4,3.8,1.4c0,0.2,0,0.3,0,0.5C37.1,31.1,37.2,34.2,33.3,35.7z"/>
		</g>
	</g>
</g>
</svg>
