<?xml version="1.0" encoding="utf-8"?>
<!-- Generator: Adobe Illustrator 25.1.0, SVG Export Plug-In . SVG Version: 6.00 Build 0)  -->
<svg version="1.1" id="Layer_1" xmlns="http://www.w3.org/2000/svg" xmlns:xlink="http://www.w3.org/1999/xlink" x="0px" y="0px"
	 viewBox="0 0 55 64" style="enable-background:new 0 0 55 64;" xml:space="preserve">
<style type="text/css">
	.st0{fill:#FFEA80;}
	.st1{fill:#1A3B47;stroke:#1A3B47;stroke-miterlimit:10;}
</style>
<g>
	<polygon class="st0" points="51.6,46.8 3.4,46.7 7.8,30.6 11.6,30.6 11.6,31.9 8.8,31.9 5.2,45.3 49.8,45.5 45.5,31.9 43.6,31.9 
		43.6,30.6 46.5,30.6 	"/>
	<g>
		<g>
			<path class="st1" d="M40.6,17.2H14.4c-0.8,0-1.4,0.6-1.4,1.4v18.2c0,0.8,0.6,1.4,1.4,1.4h10v2.4h-2.6c-0.3,0-0.5,0.2-0.5,0.5
				c0,0.3,0.2,0.5,0.5,0.5h11.4c0.3,0,0.5-0.2,0.5-0.5c0-0.3-0.2-0.5-0.5-0.5h-2.6v-2.4h10c0.8,0,1.4-0.6,1.4-1.4V18.6
				C42,17.8,41.3,17.2,40.6,17.2z M14.4,18.2h26.2c0.2,0,0.3,0.2,0.3,0.3v14.8H14.1V18.6C14.1,18.4,14.2,18.2,14.4,18.2z M29.6,40.6
				h-4.1v-2.4h4.1V40.6z M40.6,37.2h-10h-6.2h-10c-0.2,0-0.3-0.2-0.3-0.3v-2.4h26.9v2.4C40.9,37,40.8,37.2,40.6,37.2z"/>
		</g>
		<g>
			<polygon class="st1" points="17.2,30.6 16.4,29.7 21.4,25.3 26.3,28.1 31.9,22.5 34.7,24.8 37.8,21.6 38.6,22.4 34.8,26.4 
				32,24.1 26.5,29.5 21.5,26.7 			"/>
		</g>
	</g>
</g>
</svg>
