<?xml version="1.0" encoding="utf-8"?>
<!-- Generator: Adobe Illustrator 25.1.0, SVG Export Plug-In . SVG Version: 6.00 Build 0)  -->
<svg version="1.1" id="Layer_1" xmlns="http://www.w3.org/2000/svg" xmlns:xlink="http://www.w3.org/1999/xlink" x="0px" y="0px"
	 viewBox="0 0 55 64" style="enable-background:new 0 0 55 64;" xml:space="preserve">
<style type="text/css">
	.st0{fill:#7874B4;}
	.st1{fill:#1A3B47;}
</style>
<g>
	<polygon class="st0" points="55,48.9 0,48.7 5,30.4 18.1,30.4 18.1,31.9 6.2,31.9 2,47.2 52.9,47.4 48.1,31.9 37,31.9 37,30.4 
		49.2,30.4 	"/>
	<path class="st1" d="M23,38.9c0.5,0.2,1.1-0.1,1.3-0.6l1.1-2.8c4.3,1.1,8.8-1.1,10.5-5.3c1.7-4.3-2.6-13.5-3.1-14.5
		c-0.2-0.5-0.8-0.7-1.3-0.5c-1.1,0.4-10.4,4.4-12.1,8.7c-1.6,4.2,0.2,8.9,4.1,11l-1.1,2.8C22.3,38.1,22.5,38.7,23,38.9z M21.2,24.5
		c1-2.7,7-5.8,10.1-7.2c1.4,3.1,3.7,9.4,2.6,12.1c-1.2,3.2-4.7,4.9-7.9,4.2l0.9-2.3l4.7-2.1c0.5-0.2,0.7-0.8,0.5-1.3
		c-0.2-0.5-0.8-0.7-1.3-0.5L28,28.8l2-5.1c0.2-0.5-0.1-1.1-0.6-1.3c-0.5-0.2-1.1,0.1-1.3,0.6l-2,5.1l-1.3-2.9
		c-0.2-0.5-0.8-0.7-1.3-0.5c-0.5,0.2-0.7,0.8-0.5,1.3l2.1,4.7L24.2,33C21.3,31.3,20,27.8,21.2,24.5z"/>
</g>
</svg>
