<?xml version="1.0" encoding="utf-8"?>
<!-- Generator: Adobe Illustrator 25.1.0, SVG Export Plug-In . SVG Version: 6.00 Build 0)  -->
<svg version="1.1" id="Layer_1" xmlns="http://www.w3.org/2000/svg" xmlns:xlink="http://www.w3.org/1999/xlink" x="0px" y="0px"
	 viewBox="0 0 55 64" style="enable-background:new 0 0 55 64;" xml:space="preserve">
<style type="text/css">
	.st0{fill:#639FCB;}
	.st1{fill:#1A3B47;}
</style>
<polygon class="st0" points="52.7,52.3 1.3,52.2 6,35 12,35 12,36.4 7,36.4 3.1,50.8 50.8,50.9 46.2,36.4 42,36.4 42,35 47.3,35 "/>
<g>
	<g>
		<path class="st1" d="M27,14.1c-1.2,0-2.2,1-2.2,2.2s1,2.2,2.2,2.2c1.2,0,2.2-1,2.2-2.2C29.2,15.1,28.2,14.1,27,14.1 M27,20
			c-2,0-3.6-1.6-3.6-3.6c0-2,1.6-3.6,3.6-3.6c2,0,3.6,1.6,3.6,3.6S29,20,27,20"/>
		<path class="st1" d="M32.3,46.3c-0.4,0-0.7-0.3-0.7-0.7V24.9c0-1.2-1.8-2.5-4.6-2.5s-4.6,1.3-4.6,2.5v20.7c0,0.4-0.3,0.7-0.7,0.7
			c-0.4,0-0.7-0.3-0.7-0.7V24.9c0-2.2,2.6-3.9,6-3.9c3.4,0,6,1.7,6,3.9v20.7C33,45.9,32.7,46.3,32.3,46.3"/>
		<path class="st1" d="M18,14.1c-1.2,0-2.2,1-2.2,2.2s1,2.2,2.2,2.2s2.2-1,2.2-2.2C20.2,15.1,19.2,14.1,18,14.1 M18,20
			c-2,0-3.6-1.6-3.6-3.6c0-2,1.6-3.6,3.6-3.6c2,0,3.6,1.6,3.6,3.6S20,20,18,20"/>
		<path class="st1" d="M36.1,14.1c-1.2,0-2.2,1-2.2,2.2s1,2.2,2.2,2.2c1.2,0,2.2-1,2.2-2.2C38.3,15.1,37.3,14.1,36.1,14.1 M36.1,20
			c-2,0-3.6-1.6-3.6-3.6c0-2,1.6-3.6,3.6-3.6c2,0,3.6,1.6,3.6,3.6C39.7,18.3,38.1,20,36.1,20"/>
		<path class="st1" d="M41.3,42.7c-0.4,0-0.7-0.3-0.7-0.7V24.9c0-1.2-1.8-2.5-4.6-2.5c-0.8,0-1.5,0.1-2.2,0.3
			c-0.4,0.1-0.8-0.1-0.9-0.5c-0.1-0.4,0.1-0.8,0.5-0.9c0.8-0.2,1.7-0.4,2.6-0.4c3.4,0,6,1.7,6,3.9V42C42,42.4,41.7,42.7,41.3,42.7"
			/>
		<path class="st1" d="M12.7,42.7c-0.4,0-0.7-0.3-0.7-0.7V24.9c0-2.2,2.6-3.9,6-3.9c0.9,0,1.8,0.1,2.6,0.4c0.4,0.1,0.6,0.5,0.5,0.9
			c-0.1,0.4-0.5,0.6-0.9,0.5c-0.7-0.2-1.4-0.3-2.2-0.3c-2.7,0-4.6,1.3-4.6,2.5V42C13.4,42.4,13.1,42.7,12.7,42.7"/>
	</g>
</g>
</svg>
