<?xml version="1.0" encoding="utf-8"?>
<!-- Generator: Adobe Illustrator 25.1.0, SVG Export Plug-In . SVG Version: 6.00 Build 0)  -->
<svg version="1.1" id="Layer_1" xmlns="http://www.w3.org/2000/svg" xmlns:xlink="http://www.w3.org/1999/xlink" x="0px" y="0px"
	 viewBox="0 0 55 64" style="enable-background:new 0 0 55 64;" xml:space="preserve">
<style type="text/css">
	.st0{fill:#F7AC6F;}
	.st1{fill:#1A3B47;stroke:#1A3B47;stroke-width:0.5;stroke-miterlimit:10;}
</style>
<polygon class="st0" points="9,62.3 9.1,1.6 37,9.6 37,16.6 35.4,16.6 35.4,10.9 10.7,3.7 10.6,60.1 35.4,53.1 35.4,48.8 37,48.8 
	37,54.3 "/>
<g>
	<path class="st1" d="M32.1,27.8c1.2,0.2,2.3,0.8,3,1.7l2.4-1.4c-0.7-1.8,0-3.9,1.7-4.9c1.9-1.1,4.4-0.4,5.5,1.5
		c1.1,1.9,0.4,4.4-1.5,5.5c-1.7,1-3.9,0.6-5.1-0.9l-2.4,1.4c0.2,0.5,0.3,1.1,0.3,1.8c0,0.6-0.1,1.2-0.3,1.7l2.4,1.4
		c1.2-1.5,3.4-1.9,5.1-0.9c1.9,1.1,2.6,3.6,1.5,5.5c-1.1,1.9-3.6,2.6-5.5,1.5c-1.7-1-2.4-3.1-1.7-4.9l-2.4-1.4
		c-0.7,0.9-1.8,1.6-3,1.7v2.7c1.9,0.3,3.4,2,3.4,4c0,2.2-1.8,4-4,4c-2.2,0-4-1.8-4-4c0-2,1.5-3.7,3.4-4V37c-1.2-0.2-2.3-0.8-3-1.7
		l-2.4,1.4c0.7,1.8,0,3.9-1.7,4.9c-1.9,1.1-4.4,0.4-5.5-1.5c-1.1-1.9-0.4-4.4,1.5-5.5c1.7-1,3.9-0.6,5.1,0.9l2.4-1.4
		c-0.2-0.5-0.3-1.1-0.3-1.7c0-0.6,0.1-1.2,0.3-1.8l-2.4-1.4c-1.2,1.5-3.4,1.9-5.1,0.9c-1.9-1.1-2.6-3.6-1.5-5.5
		c1.1-1.9,3.6-2.6,5.5-1.5c1.7,1,2.4,3.1,1.7,4.9l2.4,1.4c0.7-0.9,1.8-1.6,3-1.7v-2.7c-1.9-0.3-3.4-2-3.4-4c0-2.2,1.8-4,4-4
		s4,1.8,4,4c0,2-1.5,3.7-3.4,4L32.1,27.8L32.1,27.8z M43.7,25.4c-0.8-1.3-2.4-1.8-3.8-1c-1.3,0.8-1.8,2.4-1,3.8
		c0.8,1.3,2.4,1.8,3.8,1C44,28.4,44.4,26.7,43.7,25.4z M43.7,39.4c0.8-1.3,0.3-3-1-3.8c-1.3-0.8-3-0.3-3.8,1s-0.3,3,1,3.8
		C41.2,41.2,42.9,40.7,43.7,39.4z M31.5,46.4c1.5,0,2.8-1.2,2.8-2.8c0-1.5-1.2-2.8-2.8-2.8c-1.5,0-2.8,1.2-2.8,2.8
		C28.8,45.2,30,46.4,31.5,46.4z M19.4,39.4c0.8,1.3,2.4,1.8,3.8,1c1.3-0.8,1.8-2.4,1-3.8c-0.8-1.3-2.4-1.8-3.8-1
		C19.1,36.4,18.6,38.1,19.4,39.4L19.4,39.4z M19.4,25.4c-0.8,1.3-0.3,3,1,3.8c1.3,0.8,3,0.3,3.8-1c0.8-1.3,0.3-3-1-3.8
		C21.8,23.6,20.2,24.1,19.4,25.4z M31.5,18.4c-1.5,0-2.8,1.2-2.8,2.8c0,1.5,1.2,2.8,2.8,2.8c1.5,0,2.8-1.2,2.8-2.8
		S33,18.4,31.5,18.4z M31.5,29c-1.9,0-3.4,1.5-3.4,3.4c0,1.9,1.5,3.4,3.4,3.4s3.4-1.5,3.4-3.4C34.9,30.5,33.4,29,31.5,29L31.5,29z"
		/>
</g>
</svg>
