<?xml version="1.0" encoding="utf-8"?>
<!-- Generator: Adobe Illustrator 25.1.0, SVG Export Plug-In . SVG Version: 6.00 Build 0)  -->
<svg version="1.1" id="Layer_1" xmlns="http://www.w3.org/2000/svg" xmlns:xlink="http://www.w3.org/1999/xlink" x="0px" y="0px"
	 viewBox="0 0 55 64" style="enable-background:new 0 0 55 64;" xml:space="preserve">
<style type="text/css">
	.st0{fill:#79C5B4;}
	.st1{fill-rule:evenodd;clip-rule:evenodd;fill:#1A3B47;stroke:#1A3B47;stroke-width:2.1416;stroke-miterlimit:10;}
</style>
<polygon class="st0" points="6.7,61.6 6.8,3.4 33.6,11.1 33.6,15.6 32.1,15.6 32.1,12.3 8.3,5.4 8.3,59.6 32,52.8 32,50.3 
	33.6,50.3 33.6,54 "/>
<g>
	<path class="st1" d="M36.1,22.1c2.5-0.7,7.9-2,9.3,0.7c1.3,2.1-1.1,5.2-2.5,6.7c-0.3,0.4-1-0.3-0.6-0.7c1-1.1,3.4-4.1,2.4-5.6
		c-1.1-2-5.8-1-7.6-0.6C40.2,25,42,28.8,42,32.8c0,6.9-5.6,12.5-12.6,12.5c-2.7,0-5.1-0.8-7.2-2.2c-2.2,0.7-7.3,1.7-8.7-0.7
		c-1.1-2.1,1.1-5.1,2.4-6.6c0.3-0.4,1,0.1,0.6,0.6c-1,1.1-3.1,3.9-2.1,5.6c1,1.8,5.3,1,7,0.6c-5.6-4.8-6-13.5-0.8-18.7
		C24.6,19.7,31.2,18.9,36.1,22.1z M35.3,36l-1.8,4.2l-1.1-1.4c-3.2,1.8-6.3,3.1-9,3.9c1.8,1.1,3.8,1.7,6,1.7
		c6.5,0,11.8-5.2,11.8-11.7c0-3.9-2-7.6-5.2-9.8c-2.5,0.8-5.6,2.1-8.7,3.8l1,1.3l-4.5,1l1.8-4.4l1.3,1.4c2.8-1.5,5.6-2.8,8.1-3.7
		c-4.5-2.4-10.3-1.7-13.9,2.1c-5.1,5.1-4.4,13.5,1.3,17.7c2.8-0.8,6-2.1,9.4-3.9l-1-1.3L35.3,36z"/>
</g>
</svg>
