<?xml version="1.0" encoding="utf-8"?>
<!-- Generator: Adobe Illustrator 25.1.0, SVG Export Plug-In . SVG Version: 6.00 Build 0)  -->
<svg version="1.1" id="Layer_1" xmlns="http://www.w3.org/2000/svg" xmlns:xlink="http://www.w3.org/1999/xlink" x="0px" y="0px"
	 viewBox="0 0 55 64" style="enable-background:new 0 0 55 64;" xml:space="preserve">
<style type="text/css">
	.st0{fill:#E88AA2;}
	.st1{fill:#1A3B47;stroke:#1A3B47;stroke-width:0.5458;stroke-miterlimit:10;}
</style>
<polygon class="st0" points="10.8,61.8 10.8,3.2 37.8,11 37.8,17.6 36.3,17.6 36.3,12.2 12.4,5.3 12.3,59.7 36.2,52.9 36.2,49.2 
	37.8,49.2 37.8,54.1 "/>
<g>
	<path class="st1" d="M39.1,37.7c-0.4,0-0.8,0.1-1.1,0.3c-0.4-0.7-1.1-1.2-1.9-1.2c-0.4,0-0.8,0.1-1.1,0.3c-0.1-0.2-0.2-0.4-0.4-0.6
		c-0.4-0.4-0.9-0.6-1.5-0.6c-0.3,0-0.6,0.1-0.9,0.2l0-4.4c0-0.6-0.2-1.1-0.6-1.5c-0.4-0.4-0.9-0.6-1.5-0.6c-1.2,0-2.1,1-2.2,2.1
		l-0.1,10.1l-1.2-1.2c-0.7-0.7-1.9-0.8-2.8-0.3c-0.5,0.4-0.8,0.9-0.9,1.5c-0.1,0.6,0.1,1.2,0.5,1.7l2.3,2.8c0.2,0.3,0.6,0.3,0.9,0.1
		c0.3-0.2,0.3-0.6,0.1-0.9l-2.3-2.8c-0.2-0.2-0.2-0.4-0.2-0.7s0.2-0.5,0.4-0.6c0.4-0.2,0.8-0.2,1.1,0.1l1.7,1.7
		c0.3,0.3,0.7,0.4,1.1,0.2c0.4-0.1,0.6-0.5,0.6-0.9l0.1-10.7c0-0.5,0.4-0.9,0.9-0.9l0,0c0.2,0,0.5,0.1,0.6,0.3
		c0.1,0.2,0.3,0.4,0.3,0.6l0,6.4c0,0,0,0,0,0v1c0,0.4,0.3,0.6,0.6,0.6l0,0c0.4,0,0.6-0.3,0.6-0.6v-1c0-0.2,0.1-0.4,0.3-0.6
		s0.4-0.3,0.6-0.3l0,0c0.2,0,0.5,0.1,0.6,0.3c0.2,0.2,0.3,0.4,0.3,0.6v1.9c0,0.4,0.3,0.6,0.6,0.6l0,0c0.4,0,0.6-0.3,0.6-0.6v-1
		c0-0.5,0.4-0.9,0.9-0.9l0,0c0.5,0,0.9,0.4,0.9,0.9v0.9c0,0,0,0,0,0v1c0,0.4,0.3,0.6,0.6,0.6l0,0c0.4,0,0.6-0.3,0.6-0.6V40
		c0,0,0-0.1,0-0.1c0-0.5,0.4-0.9,0.9-0.9l0,0c0.5,0,0.9,0.4,0.9,0.9l0,6c0,0.4,0.3,0.6,0.6,0.6l0,0c0.4,0,0.6-0.3,0.6-0.6l0.1-6.1
		C41.3,38.7,40.3,37.7,39.1,37.7z"/>
	<path class="st1" d="M24.5,32.1c0.4,0,0.6-0.3,0.6-0.6c0-0.4-0.3-0.6-0.6-0.6h-3.2c-0.3-0.8-1.1-1.5-2-1.5c-1.1,0-2.1,0.9-2.1,2.1
		s0.9,2.1,2.1,2.1c0.9,0,1.7-0.6,2-1.5L24.5,32.1L24.5,32.1z M19.3,32.3c-0.4,0-0.8-0.4-0.8-0.8s0.4-0.8,0.8-0.8
		c0.4,0,0.8,0.4,0.8,0.8C20.1,32,19.7,32.3,19.3,32.3z"/>
	<path class="st1" d="M40.9,29.4c-0.9,0-1.7,0.6-2,1.5h-3.2c-0.4,0-0.6,0.3-0.6,0.6s0.3,0.6,0.6,0.6h3.2c0.3,0.8,1.1,1.5,2,1.5
		c1.1,0,2.1-0.9,2.1-2.1C43,30.4,42,29.4,40.9,29.4z M40.9,32.3c-0.4,0-0.8-0.4-0.8-0.8s0.4-0.8,0.8-0.8s0.8,0.4,0.8,0.8
		C41.7,32,41.4,32.3,40.9,32.3z"/>
	<path class="st1" d="M29.4,22.7v3.2c0,0.4,0.3,0.6,0.6,0.6c0.4,0,0.6-0.3,0.6-0.6v-3.2c0.8-0.3,1.5-1.1,1.5-2
		c0-1.1-0.9-2.1-2.1-2.1S28,19.6,28,20.7C28,21.6,28.6,22.4,29.4,22.7z M30.1,19.9c0.4,0,0.8,0.4,0.8,0.8c0,0.4-0.4,0.8-0.8,0.8
		s-0.8-0.4-0.8-0.8C29.3,20.3,29.6,19.9,30.1,19.9z"/>
	<path class="st1" d="M22.5,25.9c0.4,0,0.7-0.1,0.9-0.2l2.3,2.3c0.1,0.1,0.3,0.2,0.4,0.2c0.2,0,0.3-0.1,0.4-0.2
		c0.2-0.2,0.2-0.6,0-0.9l-2.3-2.3c0.1-0.3,0.2-0.6,0.2-0.9c0-1.1-0.9-2.1-2.1-2.1c-1.1,0-2.1,0.9-2.1,2.1
		C20.3,25,21.3,25.9,22.5,25.9z M22.5,23c0.4,0,0.8,0.4,0.8,0.8c0,0.4-0.4,0.8-0.8,0.8c-0.4,0-0.8-0.4-0.8-0.8
		C21.6,23.4,22,23,22.5,23z"/>
	<path class="st1" d="M34,28.2c0.2,0,0.3-0.1,0.4-0.2l2.3-2.3c0.3,0.1,0.6,0.2,0.9,0.2c1.1,0,2.1-0.9,2.1-2.1c0-1.1-0.9-2.1-2.1-2.1
		s-2.1,0.9-2.1,2.1c0,0.4,0.1,0.7,0.2,0.9l-2.3,2.3c-0.2,0.2-0.2,0.6,0,0.9C33.7,28.1,33.9,28.2,34,28.2z M37.7,23
		c0.4,0,0.8,0.4,0.8,0.8c0,0.4-0.4,0.8-0.8,0.8c-0.4,0-0.8-0.4-0.8-0.8C36.9,23.4,37.3,23,37.7,23z"/>
</g>
</svg>
