<?xml version="1.0" encoding="utf-8"?>
<!-- Generator: Adobe Illustrator 25.1.0, SVG Export Plug-In . SVG Version: 6.00 Build 0)  -->
<svg version="1.1" id="Layer_1" xmlns="http://www.w3.org/2000/svg" xmlns:xlink="http://www.w3.org/1999/xlink" x="0px" y="0px"
	 viewBox="0 0 178.01 159.72" style="enable-background:new 0 0 178.01 159.72;" xml:space="preserve">
<style type="text/css">
	.st0{fill:#E88AA2;}
	.st1{fill:#1A3B47;}
</style>
<g>
	<polygon class="st0" points="141.05,119.79 36.96,119.5 46.47,84.8 56.48,84.8 56.48,87.67 48.66,87.67 40.72,116.64 
		137.14,116.91 127.91,87.67 123.11,87.67 123.11,84.8 130.02,84.8 	"/>
	<g transform="translate(0,-952.36218)">
		<path class="st1" d="M121.52,1057.35h-3.29v-9.75c0-0.89-0.72-1.62-1.63-1.62h-9.74c-0.05-0.01-0.11-0.01-0.15,0
			c-0.84,0.07-1.47,0.78-1.47,1.62v9.75h-7.31v-19.51c0-0.89-0.72-1.62-1.62-1.63h-9.9c-0.84,0.08-1.48,0.79-1.47,1.63v19.51h-7.31
			v-30.89c0-0.89-0.72-1.62-1.63-1.62h-9.74c-0.05-0.01-0.11-0.01-0.15,0c-0.84,0.07-1.47,0.78-1.47,1.62v30.89h-6.5v-63.39
			c0.02-0.9-0.69-1.64-1.59-1.66c-0.07-0.01-0.15,0-0.21,0.01c-0.84,0.09-1.46,0.81-1.45,1.65v65.02c0,0.9,0.72,1.63,1.63,1.63
			h64.98c0.9,0.01,1.64-0.71,1.65-1.6C123.14,1058.1,122.43,1057.37,121.52,1057.35z M74.38,1057.35h-6.5v-29.26h6.5V1057.35z
			 M94.68,1057.35h-6.5v-17.88h6.5V1057.35z M114.99,1057.35h-6.5v-8.13h6.5V1057.35z M121.52,1030.5c-0.07,0-0.15,0-0.21,0.01
			c-0.84,0.09-1.46,0.81-1.45,1.65v4.12l-13.45-14.18c-0.49-0.52-1.26-0.67-1.9-0.35l-8.58,4.29l-9.72-11.98
			c-0.46-0.56-1.24-0.75-1.9-0.46l-8.63,3.61l-10.62-12.9c-0.34-0.43-0.87-0.67-1.42-0.61c-0.89,0.09-1.54,0.89-1.44,1.79
			c0.04,0.32,0.17,0.63,0.37,0.87l11.37,13.82c0.46,0.56,1.22,0.76,1.88,0.48l8.63-3.58l9.78,12.04c0.48,0.6,1.32,0.78,2,0.43
			l8.69-4.34l12.76,13.46h-4.31c-0.89-0.01-1.64,0.71-1.65,1.6c-0.01,0.89,0.71,1.64,1.6,1.65h8.17c0.9,0,1.63-0.73,1.63-1.63v-8.13
			C123.13,1031.26,122.42,1030.52,121.52,1030.5z"/>
	</g>
</g>
</svg>
